<svg width="64" height="64" viewBox="0 0 64 64" fill="none" xmlns="http://www.w3.org/2000/svg">
<path fill-rule="evenodd" clip-rule="evenodd" d="M32 0C49.6736 0 64 14.328 64 32C64 49.6736 49.6736 64 32 64C14.3264 64 0 49.6736 0 32C0 14.328 14.3264 0 32 0Z" fill="#F6F7F8"/>
<path fill-rule="evenodd" clip-rule="evenodd" d="M41.4075 39.6099C42.4799 40.3428 43 41.4229 43 42.8455V46.1979C43 47.0396 42.504 47.7949 41.7366 48.1454C39.1248 49.3423 35.3956 49.9456 32.734 50H32.0598C29.2938 49.9456 25.3977 49.2911 22.6879 47.9837C21.9559 47.6301 21.5 46.8828 21.5 46.0731V42.8455C21.5 41.4021 22.0057 40.3524 23.0459 39.6387L29.0707 36.7503C29.6036 36.4831 29.9408 36.3054 29.9408 35.7102V35.1325C29.9408 35.0013 30.0066 34.8765 30.1173 34.8045C30.2281 34.7308 30.3694 34.7164 30.4898 34.7692C31.7853 35.3117 32.6104 35.3101 33.9942 34.766C34.1162 34.718 34.2526 34.7324 34.3602 34.8061C34.4677 34.8765 34.5336 34.9981 34.5352 35.1261L34.5432 35.723C34.5512 36.3102 34.8867 36.4783 35.4149 36.7423L41.4075 39.6099ZM35.6804 31.2493C34.7624 32.6377 33.562 33.4915 32.2505 33.4915C30.9382 33.4915 29.7377 32.6377 28.8199 31.2493H28.7063C25.3142 31.2493 23.4521 30.5212 23.4521 30.5212C23.314 30.4716 23.2225 30.4028 23.1487 30.3036C23.0748 30.2043 23.0491 30.0763 23.0844 29.9563C23.7699 27.5992 24.8471 27.204 24.4104 22.653C24.4088 20.5487 25.1633 18.7069 26.6531 17.1563C28.191 15.7209 30.0531 14.9512 32.2026 15.0024C33.4564 15.0328 34.3955 15.0552 35.4711 16.569C35.5481 16.6442 36.4937 16.0185 37.7041 17.1131C38.1824 17.5851 38.5549 18.0748 38.8551 18.6061C39.608 19.7822 39.9965 21.1408 39.9965 22.629C39.5165 27.2952 40.4845 27.5528 41.3064 29.8875C41.3481 30.0075 41.2968 30.2107 41.1908 30.2828C40.8055 30.5468 37.8614 31.2493 35.7552 31.2493H35.6804Z" fill="#9299A2"/>
<path fill-rule="evenodd" clip-rule="evenodd" d="M32 0C49.6736 0 64 14.328 64 32C64 49.6736 49.6736 64 32 64C14.3264 64 0 49.6736 0 32C0 14.328 14.3264 0 32 0Z" fill="#F6F7F8"/>
<path fill-rule="evenodd" clip-rule="evenodd" d="M38.3276 23.4551C38.4929 23.5722 38.6184 23.7241 38.7011 23.9093C39.0363 24.6546 38.5898 25.8177 37.2964 27.5664L37.0676 28.701C37.0358 29.8167 36.3668 30.7503 35.0829 31.4118C35.0819 31.4123 35.0799 31.4135 35.0768 31.4153C34.9841 31.4674 33.9492 32.05 33.1761 32.2505C32.6914 32.2869 32.2386 32.2933 31.7889 32.2806C31.5569 32.2426 31.3265 32.2046 31.0945 32.1651C30.3262 31.9135 29.4484 31.4646 29.3097 31.3937C29.301 31.3892 29.2952 31.3862 29.2925 31.3849C28.1135 30.7234 27.4652 29.8088 27.3523 28.6599L27.1744 27.5585C25.9016 25.8035 25.4646 24.6388 25.8015 23.8982C25.8666 23.7542 25.9778 23.5928 26.1653 23.4582C26.4164 23.2778 26.5276 22.9566 26.4657 22.6528L25.9318 20.0306C25.7665 19.4102 25.8205 18.869 26.0954 18.4481C26.2686 18.1838 26.5308 17.9765 26.8725 17.8278C27.0329 17.7566 27.1267 17.7502 27.2729 17.7645C27.7986 16.7484 28.333 16.3168 28.7198 16.0044C28.768 15.9655 28.8139 15.9285 28.8571 15.8924C29.7994 15.1075 31.3439 14.8464 33.5606 15.0853C36.8737 15.4762 38.5215 16.3877 38.5994 17.8705C38.601 18.1854 38.5628 18.4829 38.4897 18.7757L37.9463 22.6543C37.9018 22.9724 38.0639 23.2683 38.3276 23.4551ZM42.4594 36.7787C42.5199 36.8034 42.5817 36.8285 42.6424 36.8527C44.0185 37.5569 44.5191 38.6409 44.4984 40.1522L44.5 44.8395C44.5 45.4757 44.2108 46.0739 43.7277 46.4394C40.8294 48.6359 36.7933 49.9335 32.6492 50H31.9548C27.8074 49.9335 23.7396 48.6359 20.7888 46.4426C20.2962 46.0739 20.0006 45.4725 20.0006 44.83V40.1126C19.98 38.6583 20.4741 37.5696 21.8359 36.8638C21.9122 36.8242 21.9932 36.7926 22.0759 36.7657L28.675 34.1213C29.1851 33.9188 29.7206 33.9125 30.1846 34.1071C31.4622 34.6436 32.6921 34.6388 34.1698 34.0913C34.6656 33.9093 35.1947 33.9061 35.654 34.0881L42.4041 36.7562C42.4224 36.7636 42.4408 36.7711 42.4594 36.7787Z" fill="#9299A2"/>
<path fill-rule="evenodd" clip-rule="evenodd" d="M32 0C49.6736 0 64 14.328 64 32C64 49.6736 49.6736 64 32 64C14.3264 64 0 49.6736 0 32C0 14.328 14.3264 0 32 0V0Z" fill="#F6F7F8"/>
<path fill-rule="evenodd" clip-rule="evenodd" d="M38.3276 23.4551C38.4929 23.5722 38.6184 23.7241 38.7011 23.9093C39.0363 24.6546 38.5898 25.8177 37.2964 27.5664L37.0676 28.701C37.0358 29.8167 36.3668 30.7503 35.0829 31.4118C35.0819 31.4123 35.0799 31.4135 35.0768 31.4152C34.9841 31.4674 33.9492 32.05 33.1761 32.2505C32.6914 32.2869 32.2386 32.2933 31.7889 32.2806C31.5569 32.2426 31.3265 32.2046 31.0945 32.1651C30.3263 31.9135 29.4484 31.4646 29.3097 31.3937C29.301 31.3892 29.2952 31.3862 29.2925 31.3849C28.1135 30.7234 27.4652 29.8088 27.3523 28.6599L27.1744 27.5585C25.9016 25.8035 25.4646 24.6388 25.8015 23.8982C25.8666 23.7542 25.9778 23.5928 26.1653 23.4582C26.4164 23.2778 26.5276 22.9566 26.4657 22.6528L25.9318 20.0306C25.7665 19.4102 25.8205 18.869 26.0954 18.4481C26.2686 18.1838 26.5308 17.9765 26.8725 17.8278C27.0329 17.7566 27.1267 17.7502 27.2729 17.7645C27.7986 16.7484 28.333 16.3168 28.7198 16.0044C28.768 15.9655 28.8139 15.9285 28.8571 15.8924C29.7994 15.1075 31.3439 14.8464 33.5606 15.0853C36.8737 15.4762 38.5215 16.3877 38.5994 17.8705C38.601 18.1854 38.5628 18.4829 38.4897 18.7757L37.9463 22.6543C37.9018 22.9724 38.0639 23.2683 38.3276 23.4551ZM42.4594 36.7787C42.5199 36.8034 42.5817 36.8285 42.6424 36.8527C44.0185 37.5569 44.5191 38.6409 44.4984 40.1522L44.5 44.8395C44.5 45.4757 44.2108 46.0739 43.7277 46.4394C40.8294 48.6359 36.7933 49.9335 32.6492 50H31.9548C27.8074 49.9335 23.7396 48.6359 20.7888 46.4426C20.2962 46.0739 20.0006 45.4725 20.0006 44.83V40.1126C19.98 38.6583 20.4741 37.5696 21.8359 36.8638C21.9122 36.8242 21.9932 36.7926 22.0759 36.7657L28.675 34.1213C29.1851 33.9188 29.7206 33.9125 30.1846 34.1071C31.4622 34.6436 32.6921 34.6388 34.1698 34.0913C34.6656 33.9093 35.1947 33.9061 35.654 34.0881L42.4041 36.7562C42.4224 36.7636 42.4408 36.7711 42.4594 36.7787Z" fill="#9299A2"/>
</svg>
