<svg width="16" height="16" viewBox="0 0 16 16" fill="none" xmlns="http://www.w3.org/2000/svg">
<mask id="mask0_1_7283" style="mask-type:alpha" maskUnits="userSpaceOnUse" x="2" y="1" width="12" height="14">
<path opacity="0.6" fill-rule="evenodd" clip-rule="evenodd" d="M12 4.66668C12 2.82573 10.5076 1.33334 8.66667 1.33334H7.33333C5.49238 1.33334 4 2.82573 4 4.66668V7.66668H6V4.66668C6 3.9303 6.59695 3.33334 7.33333 3.33334H8.66667C9.40305 3.33334 10 3.9303 10 4.66668V5.33334H12V4.66668Z" fill="black"/>
<path fill-rule="evenodd" clip-rule="evenodd" d="M2.6665 14.6667V7.66669H13.3332V12C13.3332 13.4728 12.1393 14.6667 10.6665 14.6667H2.6665ZM8.99984 10H6.99984V12.3334H7.6665C8.40288 12.3334 8.99984 11.7364 8.99984 11V10Z" fill="url(#paint0_linear_1_7283)"/>
</mask>
<g mask="url(#mask0_1_7283)">
<path d="M0 0H16V16H0V0Z" fill="black"/>
</g>
<defs>
<linearGradient id="paint0_linear_1_7283" x1="2.99984" y1="7.66669" x2="11.9998" y2="14" gradientUnits="userSpaceOnUse">
<stop/>
<stop offset="1" stop-opacity="0.8"/>
</linearGradient>
</defs>
</svg>
